<svg height="480pt" viewBox="-104 0 480 480.00003" width="480pt" xmlns="http://www.w3.org/2000/svg"><path d="m216 472h-160l-24-320h208zm0 0" fill="#f05d46"/><path d="m8 112h256v40h-256zm0 0" fill="#dedede"/><path d="m120 8h32v104h-32zm0 0" fill="#f05d46"/><path d="m66.484375 216.617188 15.953125-1.226563 5.539062 72.003906-15.953124 1.226563zm0 0" fill="#ff8b78"/><path d="m64.019531 184.613281 15.953125-1.230469 1.234375 16-15.953125 1.230469zm0 0" fill="#ff8b78"/><path d="m240 152h-208l1.800781 24h183.871094c-25.726563 156.273438-113.839844 227.023438-164.71875 255.375l3.046875 40.625h160l22.199219-296zm0 0" fill="#e3523b"/><path d="m152 0h-32c-4.417969 0-8 3.582031-8 8v96h-104c-4.417969 0-8 3.582031-8 8v40c0 4.417969 3.582031 8 8 8h16.574219l23.425781 312.601562c.316406 4.179688 3.804688 7.410157 8 7.398438h160c4.195312.011719 7.683594-3.21875 8-7.398438l23.425781-312.601562h16.574219c4.417969 0 8-3.582031 8-8v-40c0-4.417969-3.582031-8-8-8h-104v-96c0-4.417969-3.582031-8-8-8zm-24 16h16v88h-16zm80.574219 448h-145.148438l-22.800781-304h190.75zm47.425781-320h-240v-24h240zm0 0"/><path d="m66.484375 216.617188 15.953125-1.226563 5.539062 72.003906-15.953124 1.226563zm0 0"/><path d="m64.019531 184.613281 15.953125-1.230469 1.234375 16-15.953125 1.230469zm0 0"/></svg>