<svg height="512pt" viewBox="0 0 512 512" width="512pt" xmlns="http://www.w3.org/2000/svg"><path d="m425.21875 244.890625c-.726562 31.226563-23.132812 57.714844-53.800781 63.609375 6.785156 10.113281 10.410156 22.015625 10.414062 34.191406-1.199219 37.15625-32.265625 66.324219-69.425781 65.171875-3.335938-.007812-6.671875-.238281-9.980469-.691406-21.101562-2.636719-39.824219-14.828125-50.765625-33.066406-7.15625 12.144531-17.96875 21.710937-30.894531 27.335937-6.296875 2.898438-12.996094 4.828125-19.871094 5.730469-3.308593.453125-6.640625.683594-9.980469.691406-37.15625 1.152344-68.222656-28.015625-69.421874-65.171875 0-12.175781 3.625-24.078125 10.414062-34.191406-30.671875-5.894531-53.074219-32.382812-53.804688-63.609375.136719-19.304687 9.085938-37.488281 24.296876-49.375-15.453126-14.738281-24.230469-35.140625-24.296876-56.496094 0-44.949219 38.878907-81.484375 86.78125-81.484375 8.902344-.035156 17.765626 1.25 26.292969 3.816406 3.371094-30.625 29.683594-53.542968 60.484375-52.671874 30.800782-.871094 57.113282 22.046874 60.484375 52.671874 8.53125-2.566406 17.390625-3.851562 26.296875-3.816406 47.902344 0 86.777344 36.535156 86.777344 81.484375-.066406 21.355469-8.839844 41.757813-24.296875 56.496094 15.210937 11.886719 24.160156 30.070313 24.296875 49.375zm0 0" fill="#ff5364"/><path d="m381.832031 342.691406c-1.199219 37.15625-32.265625 66.324219-69.425781 65.171875-3.335938-.007812-6.671875-.238281-9.980469-.691406-21.101562-2.636719-39.824219-14.828125-50.765625-33.066406-7.15625 12.144531-17.96875 21.710937-30.894531 27.335937-6.296875 2.898438-12.996094 4.828125-19.871094 5.730469-3.308593.453125-6.640625.683594-9.980469.691406-37.15625 1.152344-68.222656-28.015625-69.421874-65.171875-.015626-2.902344.1875-5.804687.605468-8.675781 5.734375 33.304687 35.035156 57.359375 68.816406 56.492187 3.339844-.007812 6.671876-.242187 9.980469-.695312 6.875-.898438 13.574219-2.832031 19.871094-5.726562 12.925781-5.625 23.738281-15.191407 30.894531-27.335938 10.941406 18.238281 29.664063 30.429688 50.765625 33.0625 3.308594.453125 6.644531.6875 9.980469.695312 33.785156.867188 63.085938-23.1875 68.816406-56.492187.421875 2.871094.625 5.773437.609375 8.675781zm0 0" fill="#df4d60"/><path d="m302.425781 407.171875c-1.105469 13.410156-3.195312 26.722656-6.246093 39.832031-29.34375-6.785156-55.757813-22.742187-75.414063-45.5625 12.925781-5.625 23.738281-15.191406 30.894531-27.335937 10.941406 18.238281 29.664063 30.429687 50.765625 33.066406zm0 0" fill="#e4c05c"/><path d="m296.179688 447.003906c-2.238282 10.054688-5.347657 19.898438-9.285157 29.417969-29.128906-2.695313-56.914062-13.519531-80.183593-31.242187-2.796876-12.523438-4.738282-25.222657-5.816407-38.007813 6.875-.902344 13.574219-2.832031 19.871094-5.730469 19.65625 22.820313 46.070313 38.777344 75.414063 45.5625zm0 0" fill="#b19046"/><path d="m286.894531 476.421875c-9.285156 22.128906-21.609375 35.578125-35.234375 35.578125-19.175781 0-36.011718-26.902344-44.949218-66.820312 23.269531 17.722656 51.054687 28.546874 80.183593 31.242187zm0 0" fill="#e4c05c"/><path d="m138.847656 164.882812c-4.792968 0-8.679687-3.886718-8.679687-8.679687.03125-28.742187 23.324219-52.039063 52.070312-52.066406 4.792969 0 8.675781 3.882812 8.675781 8.675781s-3.882812 8.679688-8.675781 8.679688c-19.171875 0-34.710937 15.539062-34.710937 34.710937 0 4.792969-3.886719 8.679687-8.679688 8.679687zm0 0" fill="#df4d60"/><path d="m364.472656 199.59375c-4.789062 0-8.675781-3.886719-8.675781-8.679688-.027344-28.742187-23.324219-52.039062-52.066406-52.066406-4.792969 0-8.679688-3.886718-8.679688-8.679687s3.886719-8.675781 8.679688-8.675781c38.320312.042968 69.378906 31.097656 69.421875 69.421874 0 4.792969-3.886719 8.679688-8.679688 8.679688zm0 0" fill="#df4d60"/><path d="m216.949219 347.117188c-23.953125-.027344-43.359375-19.4375-43.390625-43.386719 0-4.792969 3.886718-8.679688 8.679687-8.679688s8.675781 3.886719 8.675781 8.679688c0 14.375 11.65625 26.03125 26.035157 26.03125 4.792969 0 8.679687 3.886719 8.679687 8.679687 0 4.792969-3.886718 8.675782-8.679687 8.675782zm0 0" fill="#df4d60"/><path d="m234.304688 269.015625c-4.792969 0-8.675782-3.882813-8.675782-8.675781.035156-33.535156 27.210938-60.707032 60.742188-60.746094 4.792968 0 8.679687 3.882812 8.679687 8.675781s-3.886719 8.679688-8.679687 8.679688c-23.949219.027343-43.359375 19.4375-43.386719 43.390625 0 4.792968-3.886719 8.675781-8.679687 8.675781zm0 0" fill="#df4d60"/><g fill="#f0c419"><path d="m43.390625 26.035156c-4.792969 0-8.679687-3.886718-8.679687-8.679687v-8.675781c0-4.792969 3.886718-8.679688 8.679687-8.679688s8.675781 3.886719 8.675781 8.679688v8.675781c0 4.792969-3.882812 8.679687-8.675781 8.679687zm0 0"/><path d="m26.035156 43.390625h-8.679687c-4.792969 0-8.675781-3.886719-8.675781-8.679687 0-4.792969 3.882812-8.675782 8.675781-8.675782h8.679687c4.792969 0 8.675782 3.882813 8.675782 8.675782 0 4.792968-3.882813 8.679687-8.675782 8.679687zm0 0"/><path d="m69.421875 43.390625h-8.675781c-4.792969 0-8.679688-3.886719-8.679688-8.679687 0-4.792969 3.886719-8.675782 8.679688-8.675782h8.675781c4.792969 0 8.679687 3.882813 8.679687 8.675782 0 4.792968-3.886718 8.679687-8.679687 8.679687zm0 0"/><path d="m43.390625 69.421875c-4.792969 0-8.679687-3.882813-8.679687-8.675781v-8.679688c0-4.792968 3.886718-8.675781 8.679687-8.675781s8.675781 3.882813 8.675781 8.675781v8.679688c0 4.792968-3.882812 8.675781-8.675781 8.675781zm0 0"/><path d="m451.253906 355.796875c-4.792968 0-8.675781-3.886719-8.675781-8.679687v-8.675782c0-4.792968 3.882813-8.679687 8.675781-8.679687 4.792969 0 8.679688 3.886719 8.679688 8.679687v8.675782c0 4.792968-3.886719 8.679687-8.679688 8.679687zm0 0"/><path d="m477.289062 373.152344h-8.679687c-4.792969 0-8.675781-3.886719-8.675781-8.679688 0-4.789062 3.882812-8.675781 8.675781-8.675781h8.679687c4.792969 0 8.675782 3.886719 8.675782 8.675781 0 4.792969-3.882813 8.679688-8.675782 8.679688zm0 0"/><path d="m451.253906 399.1875c-4.792968 0-8.675781-3.886719-8.675781-8.679688v-8.675781c0-4.792969 3.882813-8.679687 8.675781-8.679687 4.792969 0 8.679688 3.886718 8.679688 8.679687v8.675781c0 4.792969-3.886719 8.679688-8.679688 8.679688zm0 0"/><path d="m433.898438 373.152344h-8.679688c-4.792969 0-8.675781-3.886719-8.675781-8.679688 0-4.789062 3.882812-8.675781 8.675781-8.675781h8.679688c4.792968 0 8.679687 3.886719 8.679687 8.675781 0 4.792969-3.886719 8.679688-8.679687 8.679688zm0 0"/><path d="m104.136719 442.578125c-4.792969 0-8.679688-3.886719-8.679688-8.679687v-8.679688c0-4.792969 3.886719-8.675781 8.679688-8.675781s8.675781 3.882812 8.675781 8.675781v8.679688c0 4.792968-3.882812 8.679687-8.675781 8.679687zm0 0"/><path d="m86.78125 459.933594h-8.679688c-4.792968 0-8.679687-3.886719-8.679687-8.679688 0-4.792968 3.886719-8.675781 8.679687-8.675781h8.679688c4.792969 0 8.675781 3.882813 8.675781 8.675781 0 4.792969-3.882812 8.679688-8.675781 8.679688zm0 0"/><path d="m130.167969 459.933594h-8.675781c-4.792969 0-8.679688-3.886719-8.679688-8.679688 0-4.792968 3.886719-8.675781 8.679688-8.675781h8.675781c4.792969 0 8.679687 3.882813 8.679687 8.675781 0 4.792969-3.886718 8.679688-8.679687 8.679688zm0 0"/><path d="m104.136719 485.964844c-4.792969 0-8.679688-3.882813-8.679688-8.675782v-8.679687c0-4.792969 3.886719-8.675781 8.679688-8.675781s8.675781 3.882812 8.675781 8.675781v8.679687c0 4.792969-3.882812 8.675782-8.675781 8.675782zm0 0"/><path d="m477.289062 52.066406c-4.792968 0-8.679687-3.882812-8.679687-8.675781v-8.679687c0-4.792969 3.886719-8.675782 8.679687-8.675782 4.792969 0 8.675782 3.882813 8.675782 8.675782v8.679687c0 4.792969-3.882813 8.675781-8.675782 8.675781zm0 0"/><path d="m503.320312 69.421875h-8.675781c-4.792969 0-8.679687-3.882813-8.679687-8.675781 0-4.792969 3.886718-8.679688 8.679687-8.679688h8.675781c4.792969 0 8.679688 3.886719 8.679688 8.679688 0 4.792968-3.886719 8.675781-8.679688 8.675781zm0 0"/><path d="m477.289062 95.457031c-4.792968 0-8.679687-3.882812-8.679687-8.675781v-8.679688c0-4.792968 3.886719-8.679687 8.679687-8.679687 4.792969 0 8.675782 3.886719 8.675782 8.679687v8.679688c0 4.792969-3.882813 8.675781-8.675782 8.675781zm0 0"/><path d="m459.933594 69.421875h-8.679688c-4.792968 0-8.675781-3.882813-8.675781-8.675781 0-4.792969 3.882813-8.679688 8.675781-8.679688h8.679688c4.792968 0 8.675781 3.886719 8.675781 8.679688 0 4.792968-3.882813 8.675781-8.675781 8.675781zm0 0"/><path d="m34.710938 303.730469c-4.792969 0-8.675782-3.886719-8.675782-8.679688v-8.679687c0-4.789063 3.882813-8.675782 8.675782-8.675782 4.792968 0 8.679687 3.886719 8.679687 8.675782v8.679687c0 4.792969-3.886719 8.679688-8.679687 8.679688zm0 0"/><path d="m17.355469 321.085938h-8.675781c-4.792969 0-8.679688-3.886719-8.679688-8.679688s3.886719-8.675781 8.679688-8.675781h8.675781c4.792969 0 8.679687 3.882812 8.679687 8.675781s-3.886718 8.679688-8.679687 8.679688zm0 0"/><path d="m60.746094 321.085938h-8.679688c-4.792968 0-8.675781-3.886719-8.675781-8.679688s3.882813-8.675781 8.675781-8.675781h8.679688c4.792968 0 8.675781 3.882812 8.675781 8.675781s-3.882813 8.679688-8.675781 8.679688zm0 0"/><path d="m34.710938 347.117188c-4.792969 0-8.675782-3.882813-8.675782-8.675782v-8.679687c0-4.792969 3.882813-8.675781 8.675782-8.675781 4.792968 0 8.679687 3.882812 8.679687 8.675781v8.679687c0 4.792969-3.886719 8.675782-8.679687 8.675782zm0 0"/></g></svg>