<svg height="512pt" viewBox="0 -8 512.00002 512" width="512pt" xmlns="http://www.w3.org/2000/svg"><path d="m359.269531 448.5-103.269531 23.53125-103.277344-23.53125 14.148438-59.265625 84.742187-31.160156 93.507813 31.160156 4.574218 19.183594zm0 0" fill="#2d303b"/><path d="m512 61.011719v283.792969c0 24.535156-19.894531 44.429687-44.429688 44.429687h-423.148437c-24.535156 0-44.41796875-19.894531-44.41796875-44.429687v-283.792969zm0 0" fill="#c4e2f2"/><path d="m512 339.582031v5.222657c0 24.535156-19.894531 44.429687-44.429688 44.429687h-423.148437c-24.535156 0-44.41796875-19.894531-44.41796875-44.429687v-5.222657zm0 0" fill="#3c3f4d"/><path d="m469.910156 24.617188h-427.824218c-23.242188 0-42.085938 18.84375-42.085938 42.085937v46.394531c0 28.277344 22.921875 51.199219 51.199219 51.199219 28.277343 0 51.199219-22.921875 51.199219-51.199219 0 28.277344 22.921874 51.199219 51.199218 51.199219s51.199219-22.921875 51.199219-51.199219c0 28.277344 22.925781 51.199219 51.203125 51.199219 28.273438 0 51.199219-22.921875 51.199219-51.199219 0 28.277344 22.921875 51.199219 51.199219 51.199219 28.277343 0 51.199218-22.921875 51.199218-51.199219 0 28.277344 22.921875 51.199219 51.199219 51.199219s51.199219-22.921875 51.199219-51.199219v-46.394531c0-23.242187-18.839844-42.085937-42.085938-42.085937zm0 0" fill="#83b2c6"/><path d="m469.910156 0h-427.824218c-23.242188 0-42.085938 18.84375-42.085938 42.085938v46.398437c0 28.273437 22.921875 51.199219 51.199219 51.199219 28.277343 0 51.199219-22.925782 51.199219-51.199219 0 28.273437 22.921874 51.199219 51.199218 51.199219s51.199219-22.925782 51.199219-51.199219c0 28.273437 22.925781 51.199219 51.203125 51.199219 28.273438 0 51.199219-22.925782 51.199219-51.199219 0 28.273437 22.921875 51.199219 51.199219 51.199219 28.277343 0 51.199218-22.925782 51.199218-51.199219 0 28.273437 22.921875 51.199219 51.199219 51.199219s51.199219-22.925782 51.199219-51.199219v-46.398437c0-23.242188-18.839844-42.085938-42.085938-42.085938zm0 0" fill="#ff491f"/><path d="m62.957031 138.3125c-.46875.117188-.949219.21875-1.421875.3125-.960937.199219-1.921875.367188-2.894531.515625-.96875.132813-1.953125.257813-2.933594.34375-.867187.074219-1.746093.136719-2.625.15625-.1875.011719-.375.019531-.5625.019531-.4375.011719-.878906.023438-1.316406.023438-28.285156 0-51.19921875-22.925782-51.19921875-51.199219v-46.394531c0-16.582032 9.58203175-30.917969 23.50781275-37.773438v84.167969c0 24.230469 16.835937 44.511719 39.445312 49.828125zm0 0" fill="#ed3618"/><path d="m153.597656 139.679688c-28.277344 0-51.199218-22.921876-51.199218-51.199219v-88.480469h102.398437v88.480469c0 28.277343-22.921875 51.199219-51.199219 51.199219zm0 0" fill="#e6e6e6"/><path d="m125.910156 88.484375v-88.484375h-23.511718v88.480469c0 28.277343 22.921874 51.199219 51.199218 51.199219 4.046875 0 7.980469-.480469 11.753906-1.371094-22.605468-5.3125-39.441406-25.597656-39.441406-49.824219zm0 0" fill="#ccc"/><path d="m228.308594 88.484375v-88.484375h-23.511719v88.480469c0 28.277343 22.925781 51.199219 51.203125 51.199219 4.046875 0 7.976562-.480469 11.753906-1.371094-22.609375-5.3125-39.445312-25.597656-39.445312-49.824219zm0 0" fill="#ed3618"/><path d="m433.105469 88.484375v-88.484375h-23.507813v88.480469c0 28.277343 22.921875 51.199219 51.199219 51.199219 4.046875 0 7.980469-.480469 11.753906-1.371094-22.609375-5.3125-39.445312-25.597656-39.445312-49.824219zm0 0" fill="#ed3618"/><path d="m358.398438 139.679688c-28.277344 0-51.199219-22.921876-51.199219-51.199219v-88.480469h102.398437v88.480469c0 28.277343-22.921875 51.199219-51.199218 51.199219zm0 0" fill="#e6e6e6"/><path d="m330.707031 88.484375v-88.484375h-23.507812v88.480469c0 28.277343 22.921875 51.199219 51.199219 51.199219 4.046874 0 7.976562-.480469 11.753906-1.371094-22.609375-5.3125-39.445313-25.597656-39.445313-49.824219zm0 0" fill="#ccc"/><path d="m359.269531 448.5h-157.957031l9.570312-40.082031h138.8125zm0 0" fill="#3c3f4d"/><path d="m420.132812 481.496094v14.074218h-328.261718v-14.074218c0-18.222656 14.773437-32.996094 32.996094-32.996094h262.269531c18.222656 0 32.996093 14.773438 32.996093 32.996094zm0 0" fill="#2d303b"/><path d="m420.132812 481.496094v14.074218h-271.847656v-14.074218c0-18.222656 14.773438-32.996094 33.007813-32.996094h205.84375c18.222656 0 32.996093 14.773438 32.996093 32.996094zm0 0" fill="#3c3f4d"/><path d="m231.492188 215.292969c0 68.644531 55.644531 124.289062 124.289062 124.289062 68.640625 0 124.285156-55.644531 124.285156-124.289062zm0 0" fill="#32cc77"/><path d="m266.964844 215.292969c0 49.050781 39.765625 88.816406 88.816406 88.816406s88.816406-39.765625 88.816406-88.816406zm0 0" fill="#ff491f"/><g fill="#3c3f4d"><path d="m315.027344 250.292969c-7.121094 0-10.5-9.179688-5.085938-13.792969 5.390625-4.59375 13.898438.109375 12.835938 7.113281-.574219 3.792969-3.902344 6.679688-7.75 6.679688zm0 0"/><path d="m355.78125 250.292969c-7.125 0-10.503906-9.179688-5.089844-13.792969 5.394532-4.59375 13.898438.109375 12.835938 7.113281-.574219 3.792969-3.902344 6.679688-7.746094 6.679688zm0 0"/><path d="m396.53125 250.292969c-7.125 0-10.503906-9.179688-5.089844-13.792969 5.394532-4.59375 13.898438.109375 12.835938 7.113281-.574219 3.792969-3.902344 6.679688-7.746094 6.679688zm0 0"/></g><path d="m163.34375 227.8125c0 19.8125-12.832031 36.625-30.636719 42.578125-4.480469 1.503906-9.289062 2.320313-14.273437 2.320313-24.792969 0-44.910156-20.101563-44.910156-44.898438 0-24.804688 20.117187-44.910156 44.910156-44.910156 4.984375 0 9.792968.816406 14.273437 2.320312 17.804688 5.957032 30.636719 22.769532 30.636719 42.589844zm0 0" fill="#e2720e"/><path d="m163.34375 227.8125c0 19.8125-12.832031 36.625-30.636719 42.578125-17.804687-5.953125-30.636719-22.765625-30.636719-42.578125 0-19.820312 12.832032-36.632812 30.636719-42.589844 17.804688 5.957032 30.636719 22.769532 30.636719 42.589844zm0 0" fill="#ff8e1d"/><path d="m134.097656 224.871094c-7.171875 0-10.5625-9.324219-4.96875-13.890625 5.652344-4.609375 14.277344.671875 12.605469 7.820312-.824219 3.511719-4.023437 6.070313-7.636719 6.070313zm0 0" fill="#3c3f4d"/><path d="m335.402344 278.589844c-3.417969 0-6.496094-2.308594-7.492188-5.566406-.949218-3.109376.183594-6.558594 2.769532-8.515626 5.613281-4.257812 13.800781.867188 12.40625 7.769532-.734376 3.621094-3.976563 6.3125-7.683594 6.3125zm0 0" fill="#3c3f4d"/><path d="m376.15625 278.589844c-7.066406 0-10.445312-9.019532-5.207031-13.691406 2.632812-2.34375 6.621093-2.621094 9.550781-.664063 2.488281 1.65625 3.855469 4.707031 3.402344 7.667969-.574219 3.785156-3.898438 6.6875-7.746094 6.6875zm0 0" fill="#3c3f4d"/><path d="m205.140625 294.683594c0 19.8125-12.832031 36.625-30.636719 42.582031-4.484375 1.503906-9.289062 2.316406-14.273437 2.316406-24.796875 0-44.910157-20.101562-44.910157-44.898437 0-24.804688 20.113282-44.910156 44.910157-44.910156 4.984375 0 9.789062.816406 14.273437 2.320312 17.804688 5.957031 30.636719 22.769531 30.636719 42.589844zm0 0" fill="#e2720e"/><path d="m205.140625 294.683594c0 19.8125-12.832031 36.625-30.636719 42.582031-17.804687-5.957031-30.636718-22.769531-30.636718-42.582031 0-19.820313 12.832031-36.632813 30.636718-42.589844 17.804688 5.957031 30.636719 22.769531 30.636719 42.589844zm0 0" fill="#ff8e1d"/><path d="m122.59375 294.683594c0 19.8125-12.832031 36.625-30.636719 42.582031-4.484375 1.503906-9.289062 2.316406-14.273437 2.316406-24.796875 0-44.910156-20.101562-44.910156-44.898437 0-24.804688 20.113281-44.910156 44.910156-44.910156 4.984375 0 9.789062.816406 14.273437 2.320312 17.804688 5.957031 30.636719 22.769531 30.636719 42.589844zm0 0" fill="#e2720e"/><path d="m122.59375 294.683594c0 19.8125-12.832031 36.625-30.636719 42.582031-17.804687-5.957031-30.636719-22.769531-30.636719-42.582031 0-19.820313 12.832032-36.632813 30.636719-42.589844 17.804688 5.957031 30.636719 22.769531 30.636719 42.589844zm0 0" fill="#ff8e1d"/><path d="m58.175781 295.578125c-3.199219 0-6.167969-2.035156-7.308593-5.019531-1.195313-3.113282-.257813-6.761719 2.335937-8.875 5.503906-4.492188 13.917969.40625 12.6875 7.394531-.652344 3.703125-3.941406 6.5-7.714844 6.5zm0 0" fill="#3c3f4d"/><path d="m150.125 283.730469c-6.621094 0-10.230469-8.050781-5.878906-13.015625 2.3125-2.644532 6.269531-3.390625 9.398437-1.808594 2.96875 1.5 4.71875 4.816406 4.230469 8.121094-.5625 3.796875-3.902344 6.703125-7.75 6.703125zm0 0" fill="#3c3f4d"/></svg>